<?xml version="1.0" encoding="UTF-8"?>
<svg width="36px" height="36px" viewBox="0 0 36 36" version="1.1" xmlns="http://www.w3.org/2000/svg" xmlns:xlink="http://www.w3.org/1999/xlink">
    <title>logo copy</title>
    <g id="logo-copy" stroke="none" stroke-width="1" fill="none" fill-rule="evenodd">
        <g id="1f4e1" transform="translate(4.000000, 0.000000)" fill="#FF00FF" fill-rule="nonzero">
            <path d="M7.5,21 C9.18439405,21 15.0030283,25.7505808 15,31.6065327 C15.0030283,37.4646713 0.00100982892,37.4646713 0,31.6054394 C0.00100982892,25.7494875 5.81560477,21 7.5,21 Z" id="Path"></path>
            <path d="M5.65118103,24.3488878 C14.6162153,33.3153985 23.2353874,29.5857763 25.9698293,26.8532221 C28.703257,24.1186392 25.8095764,16.7953127 19.507986,10.4933975 C13.204367,4.19046794 5.88040354,1.29663821 3.14697583,4.03020678 C0.413548131,6.76377534 -3.31486754,15.3833915 5.65118103,24.3488878 Z" id="Path"></path>
            <path d="M8.828589,21.1703592 C15.4143351,27.7564923 23.066264,30.7792879 25.9235494,27.9239544 C28.779775,25.066501 25.7560973,17.4141223 19.171411,10.8290491 C12.5856649,4.24397585 4.93267613,1.2201204 2.07645056,4.07651383 C-0.779775004,6.93290726 2.24390275,14.5863458 8.828589,21.1703592 Z" id="Path"></path>
            <path d="M19.615502,10.3854167 C20.128166,10.8993056 20.128166,11.7314815 19.615502,12.2453704 L11.2450751,20.6145833 C10.7312538,21.1284722 9.89918729,21.1284722 9.38536598,20.6145833 C8.87154467,20.1018519 8.87154467,19.2685185 9.38536598,18.7546296 L17.7546356,10.3854167 C18.2696142,9.87152778 19.1005234,9.87152778 19.615502,10.3854167 Z" id="Path"></path>
            <path d="M20.2682323,9.73321603 C21.2439226,10.708638 21.2439226,12.2921867 20.2682323,13.2676087 C19.2914421,14.2441304 17.7085579,14.2441304 16.7317677,13.2676087 C15.7560774,12.2921867 15.7560774,10.708638 16.7317677,9.73321603 C17.7074579,8.75559466 19.2914421,8.75559466 20.2682323,9.73321603 Z" id="Path"></path>
            <path d="M25.9328571,12 L25.8784144,11.9989324 C25.2891523,11.9701078 24.8365307,11.4683453 24.8653533,10.8801089 C24.8664208,10.8630276 24.932606,8.57733944 23.1786972,6.82330597 C21.4301259,5.07567798 19.1520727,5.1375976 19.1211151,5.13653002 C18.533988,5.17176015 18.0311936,4.7116333 18.0013035,4.12446446 C17.9724809,3.53516045 18.4251026,3.03339799 19.0143647,3.00457334 C19.1446002,2.99176238 22.2467664,2.87326103 24.6870802,5.31374826 C27.1284615,7.75637064 27.0035635,10.8555545 26.9971585,10.9868669 C26.9694034,11.5558868 26.4975667,12 25.9328571,12 L25.9328571,12 Z" id="Path"></path>
            <path d="M28.7960092,12 C28.6854053,12 28.5717572,11.9806144 28.4611533,11.9418431 C27.9324869,11.755129 27.6534404,11.1735604 27.8391332,10.6419864 C27.8736335,10.5328147 28.7452734,7.70761581 25.6118343,4.55796286 C22.439836,1.36749807 19.3956918,2.09496894 19.2678378,2.1276184 C18.7310537,2.26739892 18.17499,1.93988399 18.0339446,1.39810695 C17.8918846,0.856329907 18.2084756,0.302309319 18.7452597,0.156407028 C18.9177612,0.109473424 23.0121351,-0.942451486 27.0466409,3.11628498 C31.1217353,7.21175208 29.8127533,11.1521342 29.7538999,11.3184424 C29.607781,11.7367637 29.2150863,12 28.7960092,12 Z" id="Path"></path>
            <path d="M7.66965104,31.9484562 C4.74114702,31.9484562 2.07216905,31.2103536 0.0292850402,30 C0.0212064084,30.1637735 0,30.3253036 0,30.4913206 C0.00100982897,36.5027062 15.003029,36.5027062 15,30.4924423 C15,30.391486 14.9848521,30.2938949 14.9818226,30.1940604 C12.9853907,31.2888752 10.4416316,31.9484562 7.66965104,31.9484562 Z" id="Path"></path>
        </g>
    </g>
</svg>